<?xml version="1.0" standalone="no"?>
<!DOCTYPE svg PUBLIC "-//W3C//DTD SVG 20010904//EN"
 "http://www.w3.org/TR/2001/REC-SVG-20010904/DTD/svg10.dtd">
<svg version="1.0" xmlns="http://www.w3.org/2000/svg"
 width="1024.000000pt" height="1024.000000pt" viewBox="0 0 1024.000000 1024.000000"
 preserveAspectRatio="xMidYMid meet">
<metadata>
Created by potrace 1.11, written by Peter Selinger 2001-2013
</metadata>
<g transform="translate(0.000000,1024.000000) scale(0.100000,-0.100000)"
fill="#000000" stroke="none">
<path d="M8695 8868 c-19 -11 -121 -88 -174 -132 -48 -40 -134 -121 -185 -175
-28 -30 -73 -77 -101 -106 -27 -29 -115 -121 -195 -206 -80 -84 -186 -196
-236 -248 -50 -53 -102 -108 -116 -123 -14 -15 -86 -92 -160 -170 -75 -79
-150 -159 -168 -178 -97 -104 -322 -340 -365 -383 -66 -65 -129 -94 -230 -102
-96 -7 -119 -9 -400 -34 -261 -24 -365 -31 -365 -25 0 3 55 107 121 232 188
353 273 512 354 667 32 61 77 146 100 190 182 345 243 481 267 599 13 65 -5
108 -51 124 -25 9 -37 7 -71 -11 -111 -61 -296 -231 -589 -546 -18 -20 -72
-77 -120 -126 -47 -50 -122 -129 -166 -176 -72 -76 -272 -288 -491 -519 -44
-47 -118 -125 -165 -175 -250 -266 -252 -267 -444 -280 -49 -3 -101 -8 -115
-10 -14 -2 -65 -7 -115 -10 -49 -3 -97 -8 -105 -10 -8 -2 -59 -7 -113 -10 -54
-4 -106 -8 -115 -10 -10 -1 -89 -6 -177 -9 -319 -13 -357 -16 -423 -33 -179
-43 -310 -140 -414 -304 -19 -30 -38 -70 -42 -91 -11 -62 13 -80 224 -154 147
-51 487 -174 651 -236 49 -18 61 -74 27 -121 -12 -17 -163 -67 -473 -158 -38
-11 -94 -28 -123 -36 -98 -29 -176 -120 -207 -240 -14 -55 -14 -66 -1 -97 8
-19 32 -47 53 -61 104 -70 200 -128 258 -154 127 -58 207 -128 253 -221 24
-48 27 -66 26 -145 -1 -74 -7 -105 -33 -177 -34 -94 -37 -118 -19 -136 23 -23
69 -12 178 43 142 71 225 101 276 99 59 -2 123 -37 231 -129 52 -44 123 -102
158 -130 35 -27 80 -63 101 -80 54 -43 105 -40 176 10 155 111 187 176 161
327 -18 105 -26 486 -11 528 10 31 52 60 85 60 27 -1 41 -15 120 -120 40 -52
168 -214 285 -360 169 -211 218 -266 239 -268 32 -4 77 32 120 94 48 70 227
151 316 142 69 -7 109 -29 219 -121 100 -85 200 -166 268 -217 59 -45 99 -41
177 16 157 115 184 175 154 350 -12 70 -17 157 -17 298 0 181 1 200 19 224 40
54 105 45 150 -21 15 -23 144 -187 286 -364 280 -351 275 -347 338 -302 82 58
207 327 225 482 6 57 -29 211 -209 917 -121 475 -121 495 -6 722 27 54 57 112
67 130 52 92 90 163 207 383 70 132 146 276 170 320 23 44 68 130 100 190 32
61 77 146 100 190 192 364 270 514 290 559 42 95 85 235 85 276 0 71 -66 112
-125 78z m-2814 -2668 c63 -23 120 -48 127 -57 20 -27 15 -77 -10 -100 -28
-25 -157 -69 -168 -57 -5 5 -20 56 -35 114 -14 58 -28 113 -31 123 -3 9 -4 17
-1 17 2 0 55 -18 118 -40z"/>
<path d="M5387 4152 c-70 -86 -140 -173 -156 -192 -16 -19 -109 -132 -206
-250 -97 -118 -184 -224 -193 -235 -40 -48 -290 -351 -317 -385 -16 -21 -79
-97 -140 -170 -60 -73 -132 -161 -160 -195 -81 -100 -229 -279 -240 -291 -55
-60 -494 -602 -508 -627 -21 -37 -18 -103 6 -140 17 -26 279 -210 317 -222 32
-11 78 -7 112 11 24 12 58 61 115 164 41 72 202 357 227 400 14 25 40 70 56
100 17 30 35 62 40 70 5 8 26 44 46 80 65 116 85 152 211 374 69 120 136 239
151 265 14 25 73 129 130 231 58 102 132 232 164 290 33 58 63 112 69 120 5 8
53 94 107 190 54 96 112 198 127 225 16 28 42 75 58 105 16 30 33 60 37 65 27
35 97 175 87 174 -7 0 -69 -71 -140 -157z"/>
<path d="M3470 4197 c-19 -23 -79 -96 -133 -162 -137 -167 -170 -207 -182
-219 -5 -6 -39 -47 -75 -91 -35 -44 -105 -129 -155 -190 -50 -60 -248 -301
-440 -535 -343 -418 -461 -561 -535 -650 -55 -66 -100 -121 -140 -170 -19 -24
-104 -127 -189 -229 -177 -215 -191 -235 -191 -278 0 -74 20 -96 203 -219 94
-64 138 -88 168 -91 66 -8 114 26 158 111 12 22 31 57 43 76 26 46 188 331
223 395 15 28 64 113 108 190 44 77 94 165 111 195 16 30 58 104 93 164 35 60
63 110 63 112 0 2 15 29 34 61 18 32 45 78 58 103 14 25 63 110 108 190 46 80
91 159 100 175 61 110 97 173 107 190 7 11 15 26 19 34 4 8 50 89 102 180 52
91 105 184 117 206 12 22 51 92 87 155 157 275 180 319 176 329 -1 6 -19 -9
-38 -32z"/>
</g>
</svg>
